<svg width="14" height="13" viewBox="0 0 14 13" fill="none" xmlns="http://www.w3.org/2000/svg">
<path d="M13.8799 2.78006C13.7993 2.46425 13.6747 2.1613 13.5099 1.88006C13.3517 1.58749 13.1493 1.32103 12.9099 1.09006C12.5629 0.744191 12.152 0.469088 11.6999 0.280058C10.7901 -0.0933526 9.76979 -0.0933526 8.85995 0.280058C8.43271 0.460896 8.0402 0.71468 7.69995 1.03006L7.64995 1.09006L6.99995 1.74006L6.34995 1.09006L6.29995 1.03006C5.9597 0.71468 5.56718 0.460896 5.13995 0.280058C4.2301 -0.0933526 3.20979 -0.0933526 2.29995 0.280058C1.84793 0.469088 1.43698 0.744191 1.08995 1.09006C0.615312 1.55189 0.27932 2.13728 0.119949 2.78006C0.0351638 3.10648 -0.00520014 3.44285 -5.12038e-05 3.78006C-5.12038e-05 4.09706 0.0399488 4.41306 0.119949 4.72006C0.203783 5.0301 0.324653 5.32892 0.479949 5.61006C0.647664 5.89907 0.852766 6.16469 1.08995 6.40006L6.99995 12.3101L12.9099 6.40006C13.1469 6.16706 13.3499 5.90006 13.5099 5.61006C13.8347 5.05516 14.004 4.423 13.9999 3.78006C14.0051 3.44284 13.9648 3.10647 13.8799 2.78006V2.78006ZM12.8799 4.41006C12.7602 4.86698 12.5222 5.2843 12.1899 5.62006L6.97995 10.8201L1.76995 5.62006C1.60017 5.44907 1.45237 5.2576 1.32995 5.05006C1.21476 4.84474 1.12413 4.62657 1.05995 4.40006C1.00871 4.17358 0.981889 3.94226 0.979949 3.71006C0.981305 3.47122 1.00812 3.23321 1.05995 3.00006C1.12225 2.7729 1.21297 2.55451 1.32995 2.35006C1.44995 2.14006 1.59795 1.95006 1.76995 1.78006C2.02684 1.5266 2.32864 1.32314 2.65995 1.18006C3.32756 0.912981 4.07234 0.912981 4.73995 1.18006C5.06995 1.31706 5.36795 1.51806 5.61995 1.77006L6.97995 3.14006L8.33995 1.77006C8.59177 1.51761 8.89078 1.31714 9.21995 1.18006C9.88756 0.912981 10.6323 0.912981 11.2999 1.18006C11.6309 1.32306 11.9329 1.52706 12.1899 1.78006C12.3639 1.94506 12.5099 2.13706 12.6199 2.35006C12.8516 2.75852 12.9722 3.2205 12.9699 3.69006C12.9836 3.93168 12.9634 4.17402 12.9099 4.41006H12.8799V4.41006Z" fill="#A8A6A6"/>
</svg>
