<svg width="63" height="65" viewBox="0 0 63 65" fill="none" xmlns="http://www.w3.org/2000/svg">
<path d="M31.5207 6.16992C17.6131 6.16992 5.86566 18.2743 5.86566 32.6045C5.86566 46.9347 17.6131 59.0391 31.5207 59.0391C45.4283 59.0391 57.1757 46.9347 57.1757 32.6045C57.1757 18.2743 45.4283 6.16992 31.5207 6.16992ZM31.5207 19.3872C35.9513 19.3872 39.2172 22.7497 39.2172 27.3176C39.2172 31.8855 35.9513 35.248 31.5207 35.248C27.0926 35.248 23.8242 31.8855 23.8242 27.3176C23.8242 22.7497 27.0926 19.3872 31.5207 19.3872ZM18.4212 45.2191C20.7225 41.7297 24.5605 39.4035 28.9552 39.4035H34.0862C38.4835 39.4035 42.3189 41.7297 44.6201 45.2191C41.3414 48.8354 36.6902 51.1087 31.5207 51.1087C26.3512 51.1087 21.6999 48.8354 18.4212 45.2191Z" fill="#A3A3A3"/>
</svg>
