<svg width="126" height="126" viewBox="0 0 126 126" fill="none" xmlns="http://www.w3.org/2000/svg">
<path d="M63 31.5C59.1062 31.5 55.2998 32.6547 52.0622 34.8179C48.8246 36.9812 46.3012 40.056 44.8111 43.6534C43.321 47.2508 42.9312 51.2093 43.6908 55.0283C44.4504 58.8473 46.3255 62.3553 49.0788 65.1087C51.8322 67.862 55.3402 69.7371 59.1592 70.4967C62.9782 71.2564 66.9367 70.8665 70.5341 69.3764C74.1315 67.8863 77.2063 65.3629 79.3696 62.1253C81.5329 58.8877 82.6875 55.0813 82.6875 51.1875C82.6875 45.966 80.6133 40.9585 76.9212 37.2663C73.2291 33.5742 68.2215 31.5 63 31.5Z" fill="white"/>
<path d="M63 7.875C52.0973 7.875 41.4395 11.108 32.3742 17.1652C23.309 23.2225 16.2434 31.8318 12.0712 41.9046C7.89888 51.9774 6.80723 63.0612 8.93424 73.7544C11.0612 84.4476 16.3114 94.2699 24.0208 101.979C31.7301 109.689 41.5525 114.939 52.2457 117.066C62.9389 119.193 74.0227 118.101 84.0954 113.929C94.1682 109.757 102.778 102.691 108.835 93.6258C114.892 84.5606 118.125 73.9027 118.125 63C118.108 48.3851 112.295 34.3735 101.961 24.0392C91.6265 13.7048 77.615 7.89167 63 7.875ZM94.4685 98.1461C94.39 92.9814 92.2858 88.0543 88.6092 84.4262C84.9325 80.7982 79.9778 78.7597 74.8125 78.75H51.1875C46.0222 78.7597 41.0675 80.7982 37.3909 84.4262C33.7142 88.0543 31.61 92.9814 31.5315 98.1461C24.3911 91.7703 19.3557 83.3761 17.0921 74.0749C14.8284 64.7737 15.4433 55.0043 18.8553 46.0603C22.2673 37.1164 28.3155 29.4197 36.1989 23.9895C44.0824 18.5593 53.4293 15.6517 63.002 15.6517C72.5747 15.6517 81.9216 18.5593 89.8051 23.9895C97.6885 29.4197 103.737 37.1164 107.149 46.0603C110.561 55.0043 111.176 64.7737 108.912 74.0749C106.648 83.3761 101.613 91.7703 94.4725 98.1461H94.4685Z" fill="white"/>
</svg>
